# xmcd CD database file
#
# Track frame offsets:
#	150
#	2777
#	29742
#	47140
#
# Disc length: 985 seconds
#
# Revision: 0
# Processed by: cddbd v1.5.1PL0 Copyright (c) Steve Scherf et al.
# Submitted via: CDex 1.50
#
DISCID=2e03d704
DTITLE=西口有香 - センチメンタルジャーニー 七瀬優_天使の贈り物
DYEAR=1900
DGENRE=Anime
TTITLE0=天使の贈り物〜Prologue〜
TTITLE1=天使の贈り物
TTITLE2=天使の贈り物My sweet memories〜
TTITLE3=天使の贈り物
EXTD=
EXTT0=
EXTT1=
EXTT2=
EXTT3=
PLAYORDER=
